<svg id="token_blue_24dp" xmlns="http://www.w3.org/2000/svg" width="24" height="24" viewBox="0 0 24 24">
  <rect id="Rectangle_2205" data-name="Rectangle 2205" width="24" height="24" fill="none"/>
  <path id="Path_2298" data-name="Path 2298" d="M20,6.4,12,2,4,6.4,9.1,9.2A4.253,4.253,0,0,1,12,8a4.253,4.253,0,0,1,2.9,1.2ZM10,12a2,2,0,1,1,2,2A2,2,0,0,1,10,12Zm1,9.4L3,17V8.1L8.1,11A3.083,3.083,0,0,0,8,12a4.079,4.079,0,0,0,3,3.9Zm2,0V15.8a3.99,3.99,0,0,0,3-3.9,3.083,3.083,0,0,0-.1-1L21,8.1V17Z" fill="#5e8fff"/>
</svg>
